<svg id="Lager_1" data-name="Lager 1" xmlns="http://www.w3.org/2000/svg" viewBox="0 0 110 152"><defs><style>.cls-1{fill:#fff;}</style></defs><title>editicon</title><polygon class="cls-1" points="70 0 110 21.25 65.25 103.25 24 81.75 70 0"/><path class="cls-1" d="M49.75,121,87.5,140.5l-4,9.5-7.25,10.5A9.36,9.36,0,0,1,71,164.75s-5.5,1.5-6.75,4l-4.75,9.5s-3.75-4.75-9.75-4.5c0,0-9.75.75-13-1L30,168.5v-3.75s1.5-5.25,3.5-8,4.25-4.5,5.5-8.75c0,0,.25-7.25,1.25-11l8.25-16Z" transform="translate(-30 -26.25)"/></svg>